<svg viewBox="0 0 800 560" xmlns="http://www.w3.org/2000/svg" role="img" aria-label="Illustration of the Draw Bar on a wall with six quickdraws and a sling clipped through its slots">
  <rect width="800" height="560" rx="20" fill="#efeadf"/>
  <g stroke="#15191c" stroke-opacity=".10" stroke-width="3"><line x1="60" y1="20" x2="60" y2="540"/><line x1="740" y1="20" x2="740" y2="540"/></g>
  <circle cx="136" cy="130" r="5" fill="#15191c"/><circle cx="664" cy="130" r="5" fill="#15191c"/>
  <path d="M682.5 202.0 L682.9 202.0 L683.4 201.9 L683.9 201.9 L684.3 201.8 L684.8 201.8 L685.3 201.7 L685.7 201.6 L686.2 201.5 L686.7 201.4 L687.1 201.3 L687.6 201.1 L688.0 201.0 L688.5 200.8 L688.9 200.6 L689.3 200.4 L689.7 200.2 L690.2 200.0 L690.6 199.8 L691.0 199.6 L691.4 199.3 L691.8 199.1 L692.2 198.8 L692.6 198.6 L693.0 198.3 L693.3 198.0 L693.7 197.7 L694.0 197.4 L694.4 197.1 L694.7 196.7 L695.1 196.4 L695.4 196.0 L695.7 195.7 L696.0 195.3 L696.3 195.0 L696.6 194.6 L696.8 194.2 L697.1 193.8 L697.3 193.4 L697.6 193.0 L697.8 192.6 L698.0 192.2 L698.2 191.7 L698.4 191.3 L698.6 190.9 L698.8 190.5 L699.0 190.0 L699.1 189.6 L699.3 189.1 L699.4 188.7 L699.5 188.2 L699.6 187.7 L699.7 187.3 L699.8 186.8 L699.8 186.3 L699.9 185.9 L699.9 185.4 L700.0 184.9 L700.0 184.5 L700.0 184.0 L700.0 136.0 L700.0 88.0 L700.0 87.5 L700.0 87.1 L699.9 86.6 L699.9 86.1 L699.8 85.7 L699.8 85.2 L699.7 84.7 L699.6 84.3 L699.5 83.8 L699.4 83.3 L699.3 82.9 L699.1 82.4 L699.0 82.0 L698.8 81.5 L698.6 81.1 L698.4 80.7 L698.2 80.3 L698.0 79.8 L697.8 79.4 L697.6 79.0 L697.3 78.6 L697.1 78.2 L696.8 77.8 L696.6 77.4 L696.3 77.0 L696.0 76.7 L695.7 76.3 L695.4 76.0 L695.1 75.6 L694.7 75.3 L694.4 74.9 L694.0 74.6 L693.7 74.3 L693.3 74.0 L693.0 73.7 L692.6 73.4 L692.2 73.2 L691.8 72.9 L691.4 72.7 L691.0 72.4 L690.6 72.2 L690.2 72.0 L689.7 71.8 L689.3 71.6 L688.9 71.4 L688.5 71.2 L688.0 71.0 L687.6 70.9 L687.1 70.7 L686.7 70.6 L686.2 70.5 L685.7 70.4 L685.3 70.3 L684.8 70.2 L684.3 70.2 L683.9 70.1 L683.4 70.1 L682.9 70.0 L682.5 70.0 L682.0 70.0 L400.0 70.0 L118.0 70.0 L117.5 70.0 L117.1 70.0 L116.6 70.1 L116.1 70.1 L115.7 70.2 L115.2 70.2 L114.7 70.3 L114.3 70.4 L113.8 70.5 L113.3 70.6 L112.9 70.7 L112.4 70.9 L112.0 71.0 L111.5 71.2 L111.1 71.4 L110.7 71.6 L110.3 71.8 L109.8 72.0 L109.4 72.2 L109.0 72.4 L108.6 72.7 L108.2 72.9 L107.8 73.2 L107.4 73.4 L107.0 73.7 L106.7 74.0 L106.3 74.3 L106.0 74.6 L105.6 74.9 L105.3 75.3 L104.9 75.6 L104.6 76.0 L104.3 76.3 L104.0 76.7 L103.7 77.0 L103.4 77.4 L103.2 77.8 L102.9 78.2 L102.7 78.6 L102.4 79.0 L102.2 79.4 L102.0 79.8 L101.8 80.3 L101.6 80.7 L101.4 81.1 L101.2 81.5 L101.0 82.0 L100.9 82.4 L100.7 82.9 L100.6 83.3 L100.5 83.8 L100.4 84.3 L100.3 84.7 L100.2 85.2 L100.2 85.7 L100.1 86.1 L100.1 86.6 L100.0 87.1 L100.0 87.5 L100.0 88.0 L100.0 136.0 L100.0 184.0 L100.0 184.5 L100.0 184.9 L100.1 185.4 L100.1 185.9 L100.2 186.3 L100.2 186.8 L100.3 187.3 L100.4 187.7 L100.5 188.2 L100.6 188.7 L100.7 189.1 L100.9 189.6 L101.0 190.0 L101.2 190.5 L101.4 190.9 L101.6 191.3 L101.8 191.7 L102.0 192.2 L102.2 192.6 L102.4 193.0 L102.7 193.4 L102.9 193.8 L103.2 194.2 L103.4 194.6 L103.7 195.0 L104.0 195.3 L104.3 195.7 L104.6 196.0 L104.9 196.4 L105.3 196.7 L105.6 197.1 L106.0 197.4 L106.3 197.7 L106.7 198.0 L107.0 198.3 L107.4 198.6 L107.8 198.8 L108.2 199.1 L108.6 199.3 L109.0 199.6 L109.4 199.8 L109.8 200.0 L110.3 200.2 L110.7 200.4 L111.1 200.6 L111.5 200.8 L112.0 201.0 L112.4 201.1 L112.9 201.3 L113.3 201.4 L113.8 201.5 L114.3 201.6 L114.7 201.7 L115.2 201.8 L115.7 201.8 L116.1 201.9 L116.6 201.9 L117.1 202.0 L117.5 202.0 L118.0 202.0 L400.0 202.0 L682.0 202.0 Z M201.5 169.0 L201.0 169.0 L200.5 168.9 L200.0 168.9 L199.5 168.8 L198.9 168.8 L198.4 168.7 L197.9 168.6 L197.4 168.5 L197.0 168.3 L196.5 168.2 L196.0 168.0 L195.5 167.9 L195.0 167.7 L194.5 167.5 L194.1 167.3 L193.6 167.1 L193.1 166.9 L192.7 166.6 L192.2 166.4 L191.8 166.1 L191.4 165.9 L191.0 165.6 L190.5 165.3 L190.1 165.0 L189.7 164.7 L189.3 164.3 L189.0 164.0 L188.6 163.6 L188.2 163.3 L187.9 162.9 L187.5 162.5 L187.2 162.2 L186.8 161.8 L186.5 161.4 L186.2 161.0 L185.9 160.5 L185.6 160.1 L185.4 159.7 L185.1 159.2 L184.9 158.8 L184.6 158.4 L184.4 157.9 L184.2 157.4 L184.0 157.0 L183.8 156.5 L183.6 156.0 L183.5 155.5 L183.3 155.0 L183.2 154.5 L183.0 154.1 L182.9 153.6 L182.8 153.1 L182.7 152.6 L182.7 152.0 L182.6 151.5 L182.6 151.0 L182.5 150.5 L182.5 150.0 L182.5 149.5 L182.5 136.0 L182.5 122.5 L182.5 122.0 L182.5 121.5 L182.6 121.0 L182.6 120.5 L182.7 120.0 L182.7 119.4 L182.8 118.9 L182.9 118.4 L183.0 117.9 L183.2 117.5 L183.3 117.0 L183.5 116.5 L183.6 116.0 L183.8 115.5 L184.0 115.0 L184.2 114.6 L184.4 114.1 L184.6 113.6 L184.9 113.2 L185.1 112.8 L185.4 112.3 L185.6 111.9 L185.9 111.5 L186.2 111.0 L186.5 110.6 L186.8 110.2 L187.2 109.8 L187.5 109.5 L187.9 109.1 L188.2 108.7 L188.6 108.4 L189.0 108.0 L189.3 107.7 L189.7 107.3 L190.1 107.0 L190.5 106.7 L191.0 106.4 L191.4 106.1 L191.8 105.9 L192.2 105.6 L192.7 105.4 L193.1 105.1 L193.6 104.9 L194.1 104.7 L194.5 104.5 L195.0 104.3 L195.5 104.1 L196.0 104.0 L196.5 103.8 L197.0 103.7 L197.4 103.5 L197.9 103.4 L198.4 103.3 L198.9 103.2 L199.5 103.2 L200.0 103.1 L200.5 103.1 L201.0 103.0 L201.5 103.0 L202.0 103.0 L202.5 103.0 L203.0 103.0 L203.5 103.1 L204.0 103.1 L204.5 103.2 L205.1 103.2 L205.6 103.3 L206.1 103.4 L206.6 103.5 L207.0 103.7 L207.5 103.8 L208.0 104.0 L208.5 104.1 L209.0 104.3 L209.5 104.5 L209.9 104.7 L210.4 104.9 L210.9 105.1 L211.3 105.4 L211.8 105.6 L212.2 105.9 L212.6 106.1 L213.0 106.4 L213.5 106.7 L213.9 107.0 L214.3 107.3 L214.7 107.7 L215.0 108.0 L215.4 108.4 L215.8 108.7 L216.1 109.1 L216.5 109.5 L216.8 109.8 L217.2 110.2 L217.5 110.6 L217.8 111.0 L218.1 111.5 L218.4 111.9 L218.6 112.3 L218.9 112.8 L219.1 113.2 L219.4 113.6 L219.6 114.1 L219.8 114.6 L220.0 115.0 L220.2 115.5 L220.4 116.0 L220.5 116.5 L220.7 117.0 L220.8 117.5 L221.0 117.9 L221.1 118.4 L221.2 118.9 L221.3 119.4 L221.3 120.0 L221.4 120.5 L221.4 121.0 L221.5 121.5 L221.5 122.0 L221.5 122.5 L221.5 136.0 L221.5 149.5 L221.5 150.0 L221.5 150.5 L221.4 151.0 L221.4 151.5 L221.3 152.0 L221.3 152.6 L221.2 153.1 L221.1 153.6 L221.0 154.1 L220.8 154.5 L220.7 155.0 L220.5 155.5 L220.4 156.0 L220.2 156.5 L220.0 157.0 L219.8 157.4 L219.6 157.9 L219.4 158.4 L219.1 158.8 L218.9 159.2 L218.6 159.7 L218.4 160.1 L218.1 160.5 L217.8 161.0 L217.5 161.4 L217.2 161.8 L216.8 162.2 L216.5 162.5 L216.1 162.9 L215.8 163.3 L215.4 163.6 L215.0 164.0 L214.7 164.3 L214.3 164.7 L213.9 165.0 L213.5 165.3 L213.0 165.6 L212.6 165.9 L212.2 166.1 L211.8 166.4 L211.3 166.6 L210.9 166.9 L210.4 167.1 L209.9 167.3 L209.5 167.5 L209.0 167.7 L208.5 167.9 L208.0 168.0 L207.5 168.2 L207.0 168.3 L206.6 168.5 L206.1 168.6 L205.6 168.7 L205.1 168.8 L204.5 168.8 L204.0 168.9 L203.5 168.9 L203.0 169.0 L202.5 169.0 L202.0 169.0 Z M267.5 169.0 L267.0 169.0 L266.5 168.9 L266.0 168.9 L265.5 168.8 L264.9 168.8 L264.4 168.7 L263.9 168.6 L263.4 168.5 L263.0 168.3 L262.5 168.2 L262.0 168.0 L261.5 167.9 L261.0 167.7 L260.5 167.5 L260.1 167.3 L259.6 167.1 L259.1 166.9 L258.7 166.6 L258.2 166.4 L257.8 166.1 L257.4 165.9 L257.0 165.6 L256.5 165.3 L256.1 165.0 L255.7 164.7 L255.3 164.3 L255.0 164.0 L254.6 163.6 L254.2 163.3 L253.9 162.9 L253.5 162.5 L253.2 162.2 L252.8 161.8 L252.5 161.4 L252.2 161.0 L251.9 160.5 L251.6 160.1 L251.4 159.7 L251.1 159.2 L250.9 158.8 L250.6 158.4 L250.4 157.9 L250.2 157.4 L250.0 157.0 L249.8 156.5 L249.6 156.0 L249.5 155.5 L249.3 155.0 L249.2 154.5 L249.0 154.1 L248.9 153.6 L248.8 153.1 L248.7 152.6 L248.7 152.0 L248.6 151.5 L248.6 151.0 L248.5 150.5 L248.5 150.0 L248.5 149.5 L248.5 136.0 L248.5 122.5 L248.5 122.0 L248.5 121.5 L248.6 121.0 L248.6 120.5 L248.7 120.0 L248.7 119.4 L248.8 118.9 L248.9 118.4 L249.0 117.9 L249.2 117.5 L249.3 117.0 L249.5 116.5 L249.6 116.0 L249.8 115.5 L250.0 115.0 L250.2 114.6 L250.4 114.1 L250.6 113.6 L250.9 113.2 L251.1 112.8 L251.4 112.3 L251.6 111.9 L251.9 111.5 L252.2 111.0 L252.5 110.6 L252.8 110.2 L253.2 109.8 L253.5 109.5 L253.9 109.1 L254.2 108.7 L254.6 108.4 L255.0 108.0 L255.3 107.7 L255.7 107.3 L256.1 107.0 L256.5 106.7 L257.0 106.4 L257.4 106.1 L257.8 105.9 L258.2 105.6 L258.7 105.4 L259.1 105.1 L259.6 104.9 L260.1 104.7 L260.5 104.5 L261.0 104.3 L261.5 104.1 L262.0 104.0 L262.5 103.8 L263.0 103.7 L263.4 103.5 L263.9 103.4 L264.4 103.3 L264.9 103.2 L265.5 103.2 L266.0 103.1 L266.5 103.1 L267.0 103.0 L267.5 103.0 L268.0 103.0 L268.5 103.0 L269.0 103.0 L269.5 103.1 L270.0 103.1 L270.5 103.2 L271.1 103.2 L271.6 103.3 L272.1 103.4 L272.6 103.5 L273.0 103.7 L273.5 103.8 L274.0 104.0 L274.5 104.1 L275.0 104.3 L275.5 104.5 L275.9 104.7 L276.4 104.9 L276.9 105.1 L277.3 105.4 L277.8 105.6 L278.2 105.9 L278.6 106.1 L279.0 106.4 L279.5 106.7 L279.9 107.0 L280.3 107.3 L280.7 107.7 L281.0 108.0 L281.4 108.4 L281.8 108.7 L282.1 109.1 L282.5 109.5 L282.8 109.8 L283.2 110.2 L283.5 110.6 L283.8 111.0 L284.1 111.5 L284.4 111.9 L284.6 112.3 L284.9 112.8 L285.1 113.2 L285.4 113.6 L285.6 114.1 L285.8 114.6 L286.0 115.0 L286.2 115.5 L286.4 116.0 L286.5 116.5 L286.7 117.0 L286.8 117.5 L287.0 117.9 L287.1 118.4 L287.2 118.9 L287.3 119.4 L287.3 120.0 L287.4 120.5 L287.4 121.0 L287.5 121.5 L287.5 122.0 L287.5 122.5 L287.5 136.0 L287.5 149.5 L287.5 150.0 L287.5 150.5 L287.4 151.0 L287.4 151.5 L287.3 152.0 L287.3 152.6 L287.2 153.1 L287.1 153.6 L287.0 154.1 L286.8 154.5 L286.7 155.0 L286.5 155.5 L286.4 156.0 L286.2 156.5 L286.0 157.0 L285.8 157.4 L285.6 157.9 L285.4 158.4 L285.1 158.8 L284.9 159.2 L284.6 159.7 L284.4 160.1 L284.1 160.5 L283.8 161.0 L283.5 161.4 L283.2 161.8 L282.8 162.2 L282.5 162.5 L282.1 162.9 L281.8 163.3 L281.4 163.6 L281.0 164.0 L280.7 164.3 L280.3 164.7 L279.9 165.0 L279.5 165.3 L279.0 165.6 L278.6 165.9 L278.2 166.1 L277.8 166.4 L277.3 166.6 L276.9 166.9 L276.4 167.1 L275.9 167.3 L275.5 167.5 L275.0 167.7 L274.5 167.9 L274.0 168.0 L273.5 168.2 L273.0 168.3 L272.6 168.5 L272.1 168.6 L271.6 168.7 L271.1 168.8 L270.5 168.8 L270.0 168.9 L269.5 168.9 L269.0 169.0 L268.5 169.0 L268.0 169.0 Z M333.5 169.0 L333.0 169.0 L332.5 168.9 L332.0 168.9 L331.5 168.8 L330.9 168.8 L330.4 168.7 L329.9 168.6 L329.4 168.5 L329.0 168.3 L328.5 168.2 L328.0 168.0 L327.5 167.9 L327.0 167.7 L326.5 167.5 L326.1 167.3 L325.6 167.1 L325.1 166.9 L324.7 166.6 L324.2 166.4 L323.8 166.1 L323.4 165.9 L323.0 165.6 L322.5 165.3 L322.1 165.0 L321.7 164.7 L321.3 164.3 L321.0 164.0 L320.6 163.6 L320.2 163.3 L319.9 162.9 L319.5 162.5 L319.2 162.2 L318.8 161.8 L318.5 161.4 L318.2 161.0 L317.9 160.5 L317.6 160.1 L317.4 159.7 L317.1 159.2 L316.9 158.8 L316.6 158.4 L316.4 157.9 L316.2 157.4 L316.0 157.0 L315.8 156.5 L315.6 156.0 L315.5 155.5 L315.3 155.0 L315.2 154.5 L315.0 154.1 L314.9 153.6 L314.8 153.1 L314.7 152.6 L314.7 152.0 L314.6 151.5 L314.6 151.0 L314.5 150.5 L314.5 150.0 L314.5 149.5 L314.5 136.0 L314.5 122.5 L314.5 122.0 L314.5 121.5 L314.6 121.0 L314.6 120.5 L314.7 120.0 L314.7 119.4 L314.8 118.9 L314.9 118.4 L315.0 117.9 L315.2 117.5 L315.3 117.0 L315.5 116.5 L315.6 116.0 L315.8 115.5 L316.0 115.0 L316.2 114.6 L316.4 114.1 L316.6 113.6 L316.9 113.2 L317.1 112.8 L317.4 112.3 L317.6 111.9 L317.9 111.5 L318.2 111.0 L318.5 110.6 L318.8 110.2 L319.2 109.8 L319.5 109.5 L319.9 109.1 L320.2 108.7 L320.6 108.4 L321.0 108.0 L321.3 107.7 L321.7 107.3 L322.1 107.0 L322.5 106.7 L323.0 106.4 L323.4 106.1 L323.8 105.9 L324.2 105.6 L324.7 105.4 L325.1 105.1 L325.6 104.9 L326.1 104.7 L326.5 104.5 L327.0 104.3 L327.5 104.1 L328.0 104.0 L328.5 103.8 L329.0 103.7 L329.4 103.5 L329.9 103.4 L330.4 103.3 L330.9 103.2 L331.5 103.2 L332.0 103.1 L332.5 103.1 L333.0 103.0 L333.5 103.0 L334.0 103.0 L334.5 103.0 L335.0 103.0 L335.5 103.1 L336.0 103.1 L336.5 103.2 L337.1 103.2 L337.6 103.3 L338.1 103.4 L338.6 103.5 L339.0 103.7 L339.5 103.8 L340.0 104.0 L340.5 104.1 L341.0 104.3 L341.5 104.5 L341.9 104.7 L342.4 104.9 L342.9 105.1 L343.3 105.4 L343.8 105.6 L344.2 105.9 L344.6 106.1 L345.0 106.4 L345.5 106.7 L345.9 107.0 L346.3 107.3 L346.7 107.7 L347.0 108.0 L347.4 108.4 L347.8 108.7 L348.1 109.1 L348.5 109.5 L348.8 109.8 L349.2 110.2 L349.5 110.6 L349.8 111.0 L350.1 111.5 L350.4 111.9 L350.6 112.3 L350.9 112.8 L351.1 113.2 L351.4 113.6 L351.6 114.1 L351.8 114.6 L352.0 115.0 L352.2 115.5 L352.4 116.0 L352.5 116.5 L352.7 117.0 L352.8 117.5 L353.0 117.9 L353.1 118.4 L353.2 118.9 L353.3 119.4 L353.3 120.0 L353.4 120.5 L353.4 121.0 L353.5 121.5 L353.5 122.0 L353.5 122.5 L353.5 136.0 L353.5 149.5 L353.5 150.0 L353.5 150.5 L353.4 151.0 L353.4 151.5 L353.3 152.0 L353.3 152.6 L353.2 153.1 L353.1 153.6 L353.0 154.1 L352.8 154.5 L352.7 155.0 L352.5 155.5 L352.4 156.0 L352.2 156.5 L352.0 157.0 L351.8 157.4 L351.6 157.9 L351.4 158.4 L351.1 158.8 L350.9 159.2 L350.6 159.7 L350.4 160.1 L350.1 160.5 L349.8 161.0 L349.5 161.4 L349.2 161.8 L348.8 162.2 L348.5 162.5 L348.1 162.9 L347.8 163.3 L347.4 163.6 L347.0 164.0 L346.7 164.3 L346.3 164.7 L345.9 165.0 L345.5 165.3 L345.0 165.6 L344.6 165.9 L344.2 166.1 L343.8 166.4 L343.3 166.6 L342.9 166.9 L342.4 167.1 L341.9 167.3 L341.5 167.5 L341.0 167.7 L340.5 167.9 L340.0 168.0 L339.5 168.2 L339.0 168.3 L338.6 168.5 L338.1 168.6 L337.6 168.7 L337.1 168.8 L336.5 168.8 L336.0 168.9 L335.5 168.9 L335.0 169.0 L334.5 169.0 L334.0 169.0 Z M399.5 169.0 L399.0 169.0 L398.5 168.9 L398.0 168.9 L397.5 168.8 L396.9 168.8 L396.4 168.7 L395.9 168.6 L395.4 168.5 L395.0 168.3 L394.5 168.2 L394.0 168.0 L393.5 167.9 L393.0 167.7 L392.5 167.5 L392.1 167.3 L391.6 167.1 L391.1 166.9 L390.7 166.6 L390.2 166.4 L389.8 166.1 L389.4 165.9 L389.0 165.6 L388.5 165.3 L388.1 165.0 L387.7 164.7 L387.3 164.3 L387.0 164.0 L386.6 163.6 L386.2 163.3 L385.9 162.9 L385.5 162.5 L385.2 162.2 L384.8 161.8 L384.5 161.4 L384.2 161.0 L383.9 160.5 L383.6 160.1 L383.4 159.7 L383.1 159.2 L382.9 158.8 L382.6 158.4 L382.4 157.9 L382.2 157.4 L382.0 157.0 L381.8 156.5 L381.6 156.0 L381.5 155.5 L381.3 155.0 L381.2 154.5 L381.0 154.1 L380.9 153.6 L380.8 153.1 L380.7 152.6 L380.7 152.0 L380.6 151.5 L380.6 151.0 L380.5 150.5 L380.5 150.0 L380.5 149.5 L380.5 136.0 L380.5 122.5 L380.5 122.0 L380.5 121.5 L380.6 121.0 L380.6 120.5 L380.7 120.0 L380.7 119.4 L380.8 118.9 L380.9 118.4 L381.0 117.9 L381.2 117.5 L381.3 117.0 L381.5 116.5 L381.6 116.0 L381.8 115.5 L382.0 115.0 L382.2 114.6 L382.4 114.1 L382.6 113.6 L382.9 113.2 L383.1 112.8 L383.4 112.3 L383.6 111.9 L383.9 111.5 L384.2 111.0 L384.5 110.6 L384.8 110.2 L385.2 109.8 L385.5 109.5 L385.9 109.1 L386.2 108.7 L386.6 108.4 L387.0 108.0 L387.3 107.7 L387.7 107.3 L388.1 107.0 L388.5 106.7 L389.0 106.4 L389.4 106.1 L389.8 105.9 L390.2 105.6 L390.7 105.4 L391.1 105.1 L391.6 104.9 L392.1 104.7 L392.5 104.5 L393.0 104.3 L393.5 104.1 L394.0 104.0 L394.5 103.8 L395.0 103.7 L395.4 103.5 L395.9 103.4 L396.4 103.3 L396.9 103.2 L397.5 103.2 L398.0 103.1 L398.5 103.1 L399.0 103.0 L399.5 103.0 L400.0 103.0 L400.5 103.0 L401.0 103.0 L401.5 103.1 L402.0 103.1 L402.5 103.2 L403.1 103.2 L403.6 103.3 L404.1 103.4 L404.6 103.5 L405.0 103.7 L405.5 103.8 L406.0 104.0 L406.5 104.1 L407.0 104.3 L407.5 104.5 L407.9 104.7 L408.4 104.9 L408.9 105.1 L409.3 105.4 L409.8 105.6 L410.2 105.9 L410.6 106.1 L411.0 106.4 L411.5 106.7 L411.9 107.0 L412.3 107.3 L412.7 107.7 L413.0 108.0 L413.4 108.4 L413.8 108.7 L414.1 109.1 L414.5 109.5 L414.8 109.8 L415.2 110.2 L415.5 110.6 L415.8 111.0 L416.1 111.5 L416.4 111.9 L416.6 112.3 L416.9 112.8 L417.1 113.2 L417.4 113.6 L417.6 114.1 L417.8 114.6 L418.0 115.0 L418.2 115.5 L418.4 116.0 L418.5 116.5 L418.7 117.0 L418.8 117.5 L419.0 117.9 L419.1 118.4 L419.2 118.9 L419.3 119.4 L419.3 120.0 L419.4 120.5 L419.4 121.0 L419.5 121.5 L419.5 122.0 L419.5 122.5 L419.5 136.0 L419.5 149.5 L419.5 150.0 L419.5 150.5 L419.4 151.0 L419.4 151.5 L419.3 152.0 L419.3 152.6 L419.2 153.1 L419.1 153.6 L419.0 154.1 L418.8 154.5 L418.7 155.0 L418.5 155.5 L418.4 156.0 L418.2 156.5 L418.0 157.0 L417.8 157.4 L417.6 157.9 L417.4 158.4 L417.1 158.8 L416.9 159.2 L416.6 159.7 L416.4 160.1 L416.1 160.5 L415.8 161.0 L415.5 161.4 L415.2 161.8 L414.8 162.2 L414.5 162.5 L414.1 162.9 L413.8 163.3 L413.4 163.6 L413.0 164.0 L412.7 164.3 L412.3 164.7 L411.9 165.0 L411.5 165.3 L411.0 165.6 L410.6 165.9 L410.2 166.1 L409.8 166.4 L409.3 166.6 L408.9 166.9 L408.4 167.1 L407.9 167.3 L407.5 167.5 L407.0 167.7 L406.5 167.9 L406.0 168.0 L405.5 168.2 L405.0 168.3 L404.6 168.5 L404.1 168.6 L403.6 168.7 L403.1 168.8 L402.5 168.8 L402.0 168.9 L401.5 168.9 L401.0 169.0 L400.5 169.0 L400.0 169.0 Z M465.5 169.0 L465.0 169.0 L464.5 168.9 L464.0 168.9 L463.5 168.8 L462.9 168.8 L462.4 168.7 L461.9 168.6 L461.4 168.5 L461.0 168.3 L460.5 168.2 L460.0 168.0 L459.5 167.9 L459.0 167.7 L458.5 167.5 L458.1 167.3 L457.6 167.1 L457.1 166.9 L456.7 166.6 L456.2 166.4 L455.8 166.1 L455.4 165.9 L455.0 165.6 L454.5 165.3 L454.1 165.0 L453.7 164.7 L453.3 164.3 L453.0 164.0 L452.6 163.6 L452.2 163.3 L451.9 162.9 L451.5 162.5 L451.2 162.2 L450.8 161.8 L450.5 161.4 L450.2 161.0 L449.9 160.5 L449.6 160.1 L449.4 159.7 L449.1 159.2 L448.9 158.8 L448.6 158.4 L448.4 157.9 L448.2 157.4 L448.0 157.0 L447.8 156.5 L447.6 156.0 L447.5 155.5 L447.3 155.0 L447.2 154.5 L447.0 154.1 L446.9 153.6 L446.8 153.1 L446.7 152.6 L446.7 152.0 L446.6 151.5 L446.6 151.0 L446.5 150.5 L446.5 150.0 L446.5 149.5 L446.5 136.0 L446.5 122.5 L446.5 122.0 L446.5 121.5 L446.6 121.0 L446.6 120.5 L446.7 120.0 L446.7 119.4 L446.8 118.9 L446.9 118.4 L447.0 117.9 L447.2 117.5 L447.3 117.0 L447.5 116.5 L447.6 116.0 L447.8 115.5 L448.0 115.0 L448.2 114.6 L448.4 114.1 L448.6 113.6 L448.9 113.2 L449.1 112.8 L449.4 112.3 L449.6 111.9 L449.9 111.5 L450.2 111.0 L450.5 110.6 L450.8 110.2 L451.2 109.8 L451.5 109.5 L451.9 109.1 L452.2 108.7 L452.6 108.4 L453.0 108.0 L453.3 107.7 L453.7 107.3 L454.1 107.0 L454.5 106.7 L455.0 106.4 L455.4 106.1 L455.8 105.9 L456.2 105.6 L456.7 105.4 L457.1 105.1 L457.6 104.9 L458.1 104.7 L458.5 104.5 L459.0 104.3 L459.5 104.1 L460.0 104.0 L460.5 103.8 L461.0 103.7 L461.4 103.5 L461.9 103.4 L462.4 103.3 L462.9 103.2 L463.5 103.2 L464.0 103.1 L464.5 103.1 L465.0 103.0 L465.5 103.0 L466.0 103.0 L466.5 103.0 L467.0 103.0 L467.5 103.1 L468.0 103.1 L468.5 103.2 L469.1 103.2 L469.6 103.3 L470.1 103.4 L470.6 103.5 L471.0 103.7 L471.5 103.8 L472.0 104.0 L472.5 104.1 L473.0 104.3 L473.5 104.5 L473.9 104.7 L474.4 104.9 L474.9 105.1 L475.3 105.4 L475.8 105.6 L476.2 105.9 L476.6 106.1 L477.0 106.4 L477.5 106.7 L477.9 107.0 L478.3 107.3 L478.7 107.7 L479.0 108.0 L479.4 108.4 L479.8 108.7 L480.1 109.1 L480.5 109.5 L480.8 109.8 L481.2 110.2 L481.5 110.6 L481.8 111.0 L482.1 111.5 L482.4 111.9 L482.6 112.3 L482.9 112.8 L483.1 113.2 L483.4 113.6 L483.6 114.1 L483.8 114.6 L484.0 115.0 L484.2 115.5 L484.4 116.0 L484.5 116.5 L484.7 117.0 L484.8 117.5 L485.0 117.9 L485.1 118.4 L485.2 118.9 L485.3 119.4 L485.3 120.0 L485.4 120.5 L485.4 121.0 L485.5 121.5 L485.5 122.0 L485.5 122.5 L485.5 136.0 L485.5 149.5 L485.5 150.0 L485.5 150.5 L485.4 151.0 L485.4 151.5 L485.3 152.0 L485.3 152.6 L485.2 153.1 L485.1 153.6 L485.0 154.1 L484.8 154.5 L484.7 155.0 L484.5 155.5 L484.4 156.0 L484.2 156.5 L484.0 157.0 L483.8 157.4 L483.6 157.9 L483.4 158.4 L483.1 158.8 L482.9 159.2 L482.6 159.7 L482.4 160.1 L482.1 160.5 L481.8 161.0 L481.5 161.4 L481.2 161.8 L480.8 162.2 L480.5 162.5 L480.1 162.9 L479.8 163.3 L479.4 163.6 L479.0 164.0 L478.7 164.3 L478.3 164.7 L477.9 165.0 L477.5 165.3 L477.0 165.6 L476.6 165.9 L476.2 166.1 L475.8 166.4 L475.3 166.6 L474.9 166.9 L474.4 167.1 L473.9 167.3 L473.5 167.5 L473.0 167.7 L472.5 167.9 L472.0 168.0 L471.5 168.2 L471.0 168.3 L470.6 168.5 L470.1 168.6 L469.6 168.7 L469.1 168.8 L468.5 168.8 L468.0 168.9 L467.5 168.9 L467.0 169.0 L466.5 169.0 L466.0 169.0 Z M531.5 169.0 L531.0 169.0 L530.5 168.9 L530.0 168.9 L529.5 168.8 L528.9 168.8 L528.4 168.7 L527.9 168.6 L527.4 168.5 L527.0 168.3 L526.5 168.2 L526.0 168.0 L525.5 167.9 L525.0 167.7 L524.5 167.5 L524.1 167.3 L523.6 167.1 L523.1 166.9 L522.7 166.6 L522.2 166.4 L521.8 166.1 L521.4 165.9 L521.0 165.6 L520.5 165.3 L520.1 165.0 L519.7 164.7 L519.3 164.3 L519.0 164.0 L518.6 163.6 L518.2 163.3 L517.9 162.9 L517.5 162.5 L517.2 162.2 L516.8 161.8 L516.5 161.4 L516.2 161.0 L515.9 160.5 L515.6 160.1 L515.4 159.7 L515.1 159.2 L514.9 158.8 L514.6 158.4 L514.4 157.9 L514.2 157.4 L514.0 157.0 L513.8 156.5 L513.6 156.0 L513.5 155.5 L513.3 155.0 L513.2 154.5 L513.0 154.1 L512.9 153.6 L512.8 153.1 L512.7 152.6 L512.7 152.0 L512.6 151.5 L512.6 151.0 L512.5 150.5 L512.5 150.0 L512.5 149.5 L512.5 136.0 L512.5 122.5 L512.5 122.0 L512.5 121.5 L512.6 121.0 L512.6 120.5 L512.7 120.0 L512.7 119.4 L512.8 118.9 L512.9 118.4 L513.0 117.9 L513.2 117.5 L513.3 117.0 L513.5 116.5 L513.6 116.0 L513.8 115.5 L514.0 115.0 L514.2 114.6 L514.4 114.1 L514.6 113.6 L514.9 113.2 L515.1 112.8 L515.4 112.3 L515.6 111.9 L515.9 111.5 L516.2 111.0 L516.5 110.6 L516.8 110.2 L517.2 109.8 L517.5 109.5 L517.9 109.1 L518.2 108.7 L518.6 108.4 L519.0 108.0 L519.3 107.7 L519.7 107.3 L520.1 107.0 L520.5 106.7 L521.0 106.4 L521.4 106.1 L521.8 105.9 L522.2 105.6 L522.7 105.4 L523.1 105.1 L523.6 104.9 L524.1 104.7 L524.5 104.5 L525.0 104.3 L525.5 104.1 L526.0 104.0 L526.5 103.8 L527.0 103.7 L527.4 103.5 L527.9 103.4 L528.4 103.3 L528.9 103.2 L529.5 103.2 L530.0 103.1 L530.5 103.1 L531.0 103.0 L531.5 103.0 L532.0 103.0 L532.5 103.0 L533.0 103.0 L533.5 103.1 L534.0 103.1 L534.5 103.2 L535.1 103.2 L535.6 103.3 L536.1 103.4 L536.6 103.5 L537.0 103.7 L537.5 103.8 L538.0 104.0 L538.5 104.1 L539.0 104.3 L539.5 104.5 L539.9 104.7 L540.4 104.9 L540.9 105.1 L541.3 105.4 L541.8 105.6 L542.2 105.9 L542.6 106.1 L543.0 106.4 L543.5 106.7 L543.9 107.0 L544.3 107.3 L544.7 107.7 L545.0 108.0 L545.4 108.4 L545.8 108.7 L546.1 109.1 L546.5 109.5 L546.8 109.8 L547.2 110.2 L547.5 110.6 L547.8 111.0 L548.1 111.5 L548.4 111.9 L548.6 112.3 L548.9 112.8 L549.1 113.2 L549.4 113.6 L549.6 114.1 L549.8 114.6 L550.0 115.0 L550.2 115.5 L550.4 116.0 L550.5 116.5 L550.7 117.0 L550.8 117.5 L551.0 117.9 L551.1 118.4 L551.2 118.9 L551.3 119.4 L551.3 120.0 L551.4 120.5 L551.4 121.0 L551.5 121.5 L551.5 122.0 L551.5 122.5 L551.5 136.0 L551.5 149.5 L551.5 150.0 L551.5 150.5 L551.4 151.0 L551.4 151.5 L551.3 152.0 L551.3 152.6 L551.2 153.1 L551.1 153.6 L551.0 154.1 L550.8 154.5 L550.7 155.0 L550.5 155.5 L550.4 156.0 L550.2 156.5 L550.0 157.0 L549.8 157.4 L549.6 157.9 L549.4 158.4 L549.1 158.8 L548.9 159.2 L548.6 159.7 L548.4 160.1 L548.1 160.5 L547.8 161.0 L547.5 161.4 L547.2 161.8 L546.8 162.2 L546.5 162.5 L546.1 162.9 L545.8 163.3 L545.4 163.6 L545.0 164.0 L544.7 164.3 L544.3 164.7 L543.9 165.0 L543.5 165.3 L543.0 165.6 L542.6 165.9 L542.2 166.1 L541.8 166.4 L541.3 166.6 L540.9 166.9 L540.4 167.1 L539.9 167.3 L539.5 167.5 L539.0 167.7 L538.5 167.9 L538.0 168.0 L537.5 168.2 L537.0 168.3 L536.6 168.5 L536.1 168.6 L535.6 168.7 L535.1 168.8 L534.5 168.8 L534.0 168.9 L533.5 168.9 L533.0 169.0 L532.5 169.0 L532.0 169.0 Z M597.5 169.0 L597.0 169.0 L596.5 168.9 L596.0 168.9 L595.5 168.8 L594.9 168.8 L594.4 168.7 L593.9 168.6 L593.4 168.5 L593.0 168.3 L592.5 168.2 L592.0 168.0 L591.5 167.9 L591.0 167.7 L590.5 167.5 L590.1 167.3 L589.6 167.1 L589.1 166.9 L588.7 166.6 L588.2 166.4 L587.8 166.1 L587.4 165.9 L587.0 165.6 L586.5 165.3 L586.1 165.0 L585.7 164.7 L585.3 164.3 L585.0 164.0 L584.6 163.6 L584.2 163.3 L583.9 162.9 L583.5 162.5 L583.2 162.2 L582.8 161.8 L582.5 161.4 L582.2 161.0 L581.9 160.5 L581.6 160.1 L581.4 159.7 L581.1 159.2 L580.9 158.8 L580.6 158.4 L580.4 157.9 L580.2 157.4 L580.0 157.0 L579.8 156.5 L579.6 156.0 L579.5 155.5 L579.3 155.0 L579.2 154.5 L579.0 154.1 L578.9 153.6 L578.8 153.1 L578.7 152.6 L578.7 152.0 L578.6 151.5 L578.6 151.0 L578.5 150.5 L578.5 150.0 L578.5 149.5 L578.5 136.0 L578.5 122.5 L578.5 122.0 L578.5 121.5 L578.6 121.0 L578.6 120.5 L578.7 120.0 L578.7 119.4 L578.8 118.9 L578.9 118.4 L579.0 117.9 L579.2 117.5 L579.3 117.0 L579.5 116.5 L579.6 116.0 L579.8 115.5 L580.0 115.0 L580.2 114.6 L580.4 114.1 L580.6 113.6 L580.9 113.2 L581.1 112.8 L581.4 112.3 L581.6 111.9 L581.9 111.5 L582.2 111.0 L582.5 110.6 L582.8 110.2 L583.2 109.8 L583.5 109.5 L583.9 109.1 L584.2 108.7 L584.6 108.4 L585.0 108.0 L585.3 107.7 L585.7 107.3 L586.1 107.0 L586.5 106.7 L587.0 106.4 L587.4 106.1 L587.8 105.9 L588.2 105.6 L588.7 105.4 L589.1 105.1 L589.6 104.9 L590.1 104.7 L590.5 104.5 L591.0 104.3 L591.5 104.1 L592.0 104.0 L592.5 103.8 L593.0 103.7 L593.4 103.5 L593.9 103.4 L594.4 103.3 L594.9 103.2 L595.5 103.2 L596.0 103.1 L596.5 103.1 L597.0 103.0 L597.5 103.0 L598.0 103.0 L598.5 103.0 L599.0 103.0 L599.5 103.1 L600.0 103.1 L600.5 103.2 L601.1 103.2 L601.6 103.3 L602.1 103.4 L602.6 103.5 L603.0 103.7 L603.5 103.8 L604.0 104.0 L604.5 104.1 L605.0 104.3 L605.5 104.5 L605.9 104.7 L606.4 104.9 L606.9 105.1 L607.3 105.4 L607.8 105.6 L608.2 105.9 L608.6 106.1 L609.0 106.4 L609.5 106.7 L609.9 107.0 L610.3 107.3 L610.7 107.7 L611.0 108.0 L611.4 108.4 L611.8 108.7 L612.1 109.1 L612.5 109.5 L612.8 109.8 L613.2 110.2 L613.5 110.6 L613.8 111.0 L614.1 111.5 L614.4 111.9 L614.6 112.3 L614.9 112.8 L615.1 113.2 L615.4 113.6 L615.6 114.1 L615.8 114.6 L616.0 115.0 L616.2 115.5 L616.4 116.0 L616.5 116.5 L616.7 117.0 L616.8 117.5 L617.0 117.9 L617.1 118.4 L617.2 118.9 L617.3 119.4 L617.3 120.0 L617.4 120.5 L617.4 121.0 L617.5 121.5 L617.5 122.0 L617.5 122.5 L617.5 136.0 L617.5 149.5 L617.5 150.0 L617.5 150.5 L617.4 151.0 L617.4 151.5 L617.3 152.0 L617.3 152.6 L617.2 153.1 L617.1 153.6 L617.0 154.1 L616.8 154.5 L616.7 155.0 L616.5 155.5 L616.4 156.0 L616.2 156.5 L616.0 157.0 L615.8 157.4 L615.6 157.9 L615.4 158.4 L615.1 158.8 L614.9 159.2 L614.6 159.7 L614.4 160.1 L614.1 160.5 L613.8 161.0 L613.5 161.4 L613.2 161.8 L612.8 162.2 L612.5 162.5 L612.1 162.9 L611.8 163.3 L611.4 163.6 L611.0 164.0 L610.7 164.3 L610.3 164.7 L609.9 165.0 L609.5 165.3 L609.0 165.6 L608.6 165.9 L608.2 166.1 L607.8 166.4 L607.3 166.6 L606.9 166.9 L606.4 167.1 L605.9 167.3 L605.5 167.5 L605.0 167.7 L604.5 167.9 L604.0 168.0 L603.5 168.2 L603.0 168.3 L602.6 168.5 L602.1 168.6 L601.6 168.7 L601.1 168.8 L600.5 168.8 L600.0 168.9 L599.5 168.9 L599.0 169.0 L598.5 169.0 L598.0 169.0 Z M135.6 176.5 L135.1 176.5 L134.7 176.4 L134.3 176.4 L133.8 176.4 L133.4 176.3 L133.0 176.2 L132.6 176.1 L132.1 176.0 L131.7 175.9 L131.3 175.8 L130.9 175.7 L130.5 175.5 L130.1 175.4 L129.7 175.2 L129.3 175.1 L128.9 174.9 L128.5 174.7 L128.1 174.5 L127.8 174.3 L127.4 174.1 L127.0 173.8 L126.7 173.6 L126.3 173.3 L126.0 173.1 L125.6 172.8 L125.3 172.5 L125.0 172.3 L124.6 172.0 L124.3 171.7 L124.0 171.4 L123.7 171.0 L123.5 170.7 L123.2 170.4 L122.9 170.0 L122.7 169.7 L122.4 169.3 L122.2 169.0 L121.9 168.6 L121.7 168.2 L121.5 167.9 L121.3 167.5 L121.1 167.1 L120.9 166.7 L120.8 166.3 L120.6 165.9 L120.5 165.5 L120.3 165.1 L120.2 164.7 L120.1 164.3 L120.0 163.9 L119.9 163.4 L119.8 163.0 L119.7 162.6 L119.6 162.2 L119.6 161.7 L119.6 161.3 L119.5 160.9 L119.5 160.4 L119.5 160.0 L119.5 159.6 L119.5 159.1 L119.6 158.7 L119.6 158.3 L119.6 157.8 L119.7 157.4 L119.8 157.0 L119.9 156.6 L120.0 156.1 L120.1 155.7 L120.2 155.3 L120.3 154.9 L120.5 154.5 L120.6 154.1 L120.8 153.7 L120.9 153.3 L121.1 152.9 L121.3 152.5 L121.5 152.1 L121.7 151.8 L121.9 151.4 L122.2 151.0 L122.4 150.7 L122.7 150.3 L122.9 150.0 L123.2 149.6 L123.5 149.3 L123.7 149.0 L124.0 148.6 L124.3 148.3 L124.6 148.0 L125.0 147.7 L125.3 147.5 L125.6 147.2 L126.0 146.9 L126.3 146.7 L126.7 146.4 L127.0 146.2 L127.3 146.0 L127.6 145.8 L127.6 137.9 L127.6 130.0 L127.6 129.8 L127.6 129.6 L127.6 129.3 L127.6 129.1 L127.7 128.9 L127.7 128.7 L127.7 128.5 L127.8 128.3 L127.8 128.0 L127.9 127.8 L127.9 127.6 L128.0 127.4 L128.1 127.2 L128.2 127.0 L128.2 126.8 L128.3 126.6 L128.4 126.4 L128.5 126.2 L128.6 126.0 L128.7 125.8 L128.8 125.6 L129.0 125.4 L129.1 125.2 L129.2 125.1 L129.3 124.9 L129.5 124.7 L129.6 124.5 L129.8 124.4 L129.9 124.2 L130.1 124.1 L130.2 123.9 L130.4 123.8 L130.5 123.6 L130.7 123.5 L130.9 123.3 L131.1 123.2 L131.2 123.1 L131.4 123.0 L131.6 122.8 L131.8 122.7 L132.0 122.6 L132.2 122.5 L132.4 122.4 L132.6 122.3 L132.8 122.2 L133.0 122.2 L133.2 122.1 L133.4 122.0 L133.6 121.9 L133.8 121.9 L134.0 121.8 L134.3 121.8 L134.5 121.7 L134.7 121.7 L134.9 121.7 L135.1 121.6 L135.3 121.6 L135.6 121.6 L135.8 121.6 L136.0 121.6 L136.2 121.6 L136.4 121.6 L136.7 121.6 L136.9 121.6 L137.1 121.7 L137.3 121.7 L137.5 121.7 L137.7 121.8 L138.0 121.8 L138.2 121.9 L138.4 121.9 L138.6 122.0 L138.8 122.1 L139.0 122.2 L139.2 122.2 L139.4 122.3 L139.6 122.4 L139.8 122.5 L140.0 122.6 L140.2 122.7 L140.4 122.8 L140.6 123.0 L140.8 123.1 L140.9 123.2 L141.1 123.3 L141.3 123.5 L141.5 123.6 L141.6 123.8 L141.8 123.9 L141.9 124.1 L142.1 124.2 L142.2 124.4 L142.4 124.5 L142.5 124.7 L142.7 124.9 L142.8 125.1 L142.9 125.2 L143.0 125.4 L143.2 125.6 L143.3 125.8 L143.4 126.0 L143.5 126.2 L143.6 126.4 L143.7 126.6 L143.8 126.8 L143.8 127.0 L143.9 127.2 L144.0 127.4 L144.1 127.6 L144.1 127.8 L144.2 128.0 L144.2 128.3 L144.3 128.5 L144.3 128.7 L144.3 128.9 L144.4 129.1 L144.4 129.3 L144.4 129.6 L144.4 129.8 L144.4 130.0 L144.4 137.9 L144.4 145.8 L144.7 146.0 L145.0 146.2 L145.3 146.4 L145.7 146.7 L146.0 146.9 L146.4 147.2 L146.7 147.5 L147.0 147.7 L147.4 148.0 L147.7 148.3 L148.0 148.6 L148.3 149.0 L148.5 149.3 L148.8 149.6 L149.1 150.0 L149.3 150.3 L149.6 150.7 L149.8 151.0 L150.1 151.4 L150.3 151.8 L150.5 152.1 L150.7 152.5 L150.9 152.9 L151.1 153.3 L151.2 153.7 L151.4 154.1 L151.5 154.5 L151.7 154.9 L151.8 155.3 L151.9 155.7 L152.0 156.1 L152.1 156.6 L152.2 157.0 L152.3 157.4 L152.4 157.8 L152.4 158.3 L152.4 158.7 L152.5 159.1 L152.5 159.6 L152.5 160.0 L152.5 160.4 L152.5 160.9 L152.4 161.3 L152.4 161.7 L152.4 162.2 L152.3 162.6 L152.2 163.0 L152.1 163.4 L152.0 163.9 L151.9 164.3 L151.8 164.7 L151.7 165.1 L151.5 165.5 L151.4 165.9 L151.2 166.3 L151.1 166.7 L150.9 167.1 L150.7 167.5 L150.5 167.9 L150.3 168.2 L150.1 168.6 L149.8 169.0 L149.6 169.3 L149.3 169.7 L149.1 170.0 L148.8 170.4 L148.5 170.7 L148.3 171.0 L148.0 171.4 L147.7 171.7 L147.4 172.0 L147.0 172.3 L146.7 172.5 L146.4 172.8 L146.0 173.1 L145.7 173.3 L145.3 173.6 L145.0 173.8 L144.6 174.1 L144.2 174.3 L143.9 174.5 L143.5 174.7 L143.1 174.9 L142.7 175.1 L142.3 175.2 L141.9 175.4 L141.5 175.5 L141.1 175.7 L140.7 175.8 L140.3 175.9 L139.9 176.0 L139.4 176.1 L139.0 176.2 L138.6 176.3 L138.2 176.4 L137.7 176.4 L137.3 176.4 L136.9 176.5 L136.4 176.5 L136.0 176.5 Z M663.6 176.5 L663.1 176.5 L662.7 176.4 L662.3 176.4 L661.8 176.4 L661.4 176.3 L661.0 176.2 L660.6 176.1 L660.1 176.0 L659.7 175.9 L659.3 175.8 L658.9 175.7 L658.5 175.5 L658.1 175.4 L657.7 175.2 L657.3 175.1 L656.9 174.9 L656.5 174.7 L656.1 174.5 L655.8 174.3 L655.4 174.1 L655.0 173.8 L654.7 173.6 L654.3 173.3 L654.0 173.1 L653.6 172.8 L653.3 172.5 L653.0 172.3 L652.6 172.0 L652.3 171.7 L652.0 171.4 L651.7 171.0 L651.5 170.7 L651.2 170.4 L650.9 170.0 L650.7 169.7 L650.4 169.3 L650.2 169.0 L649.9 168.6 L649.7 168.2 L649.5 167.9 L649.3 167.5 L649.1 167.1 L648.9 166.7 L648.8 166.3 L648.6 165.9 L648.5 165.5 L648.3 165.1 L648.2 164.7 L648.1 164.3 L648.0 163.9 L647.9 163.4 L647.8 163.0 L647.7 162.6 L647.6 162.2 L647.6 161.7 L647.6 161.3 L647.5 160.9 L647.5 160.4 L647.5 160.0 L647.5 159.6 L647.5 159.1 L647.6 158.7 L647.6 158.3 L647.6 157.8 L647.7 157.4 L647.8 157.0 L647.9 156.6 L648.0 156.1 L648.1 155.7 L648.2 155.3 L648.3 154.9 L648.5 154.5 L648.6 154.1 L648.8 153.7 L648.9 153.3 L649.1 152.9 L649.3 152.5 L649.5 152.1 L649.7 151.8 L649.9 151.4 L650.2 151.0 L650.4 150.7 L650.7 150.3 L650.9 150.0 L651.2 149.6 L651.5 149.3 L651.7 149.0 L652.0 148.6 L652.3 148.3 L652.6 148.0 L653.0 147.7 L653.3 147.5 L653.6 147.2 L654.0 146.9 L654.3 146.7 L654.7 146.4 L655.0 146.2 L655.3 146.0 L655.6 145.8 L655.6 137.9 L655.6 130.0 L655.6 129.8 L655.6 129.6 L655.6 129.3 L655.6 129.1 L655.7 128.9 L655.7 128.7 L655.7 128.5 L655.8 128.3 L655.8 128.0 L655.9 127.8 L655.9 127.6 L656.0 127.4 L656.1 127.2 L656.2 127.0 L656.2 126.8 L656.3 126.6 L656.4 126.4 L656.5 126.2 L656.6 126.0 L656.7 125.8 L656.8 125.6 L657.0 125.4 L657.1 125.2 L657.2 125.1 L657.3 124.9 L657.5 124.7 L657.6 124.5 L657.8 124.4 L657.9 124.2 L658.1 124.1 L658.2 123.9 L658.4 123.8 L658.5 123.6 L658.7 123.5 L658.9 123.3 L659.1 123.2 L659.2 123.1 L659.4 123.0 L659.6 122.8 L659.8 122.7 L660.0 122.6 L660.2 122.5 L660.4 122.4 L660.6 122.3 L660.8 122.2 L661.0 122.2 L661.2 122.1 L661.4 122.0 L661.6 121.9 L661.8 121.9 L662.0 121.8 L662.3 121.8 L662.5 121.7 L662.7 121.7 L662.9 121.7 L663.1 121.6 L663.3 121.6 L663.6 121.6 L663.8 121.6 L664.0 121.6 L664.2 121.6 L664.4 121.6 L664.7 121.6 L664.9 121.6 L665.1 121.7 L665.3 121.7 L665.5 121.7 L665.7 121.8 L666.0 121.8 L666.2 121.9 L666.4 121.9 L666.6 122.0 L666.8 122.1 L667.0 122.2 L667.2 122.2 L667.4 122.3 L667.6 122.4 L667.8 122.5 L668.0 122.6 L668.2 122.7 L668.4 122.8 L668.6 123.0 L668.8 123.1 L668.9 123.2 L669.1 123.3 L669.3 123.5 L669.5 123.6 L669.6 123.8 L669.8 123.9 L669.9 124.1 L670.1 124.2 L670.2 124.4 L670.4 124.5 L670.5 124.7 L670.7 124.9 L670.8 125.1 L670.9 125.2 L671.0 125.4 L671.2 125.6 L671.3 125.8 L671.4 126.0 L671.5 126.2 L671.6 126.4 L671.7 126.6 L671.8 126.8 L671.8 127.0 L671.9 127.2 L672.0 127.4 L672.1 127.6 L672.1 127.8 L672.2 128.0 L672.2 128.3 L672.3 128.5 L672.3 128.7 L672.3 128.9 L672.4 129.1 L672.4 129.3 L672.4 129.6 L672.4 129.8 L672.4 130.0 L672.4 137.9 L672.4 145.8 L672.7 146.0 L673.0 146.2 L673.3 146.4 L673.7 146.7 L674.0 146.9 L674.4 147.2 L674.7 147.5 L675.0 147.7 L675.4 148.0 L675.7 148.3 L676.0 148.6 L676.3 149.0 L676.5 149.3 L676.8 149.6 L677.1 150.0 L677.3 150.3 L677.6 150.7 L677.8 151.0 L678.1 151.4 L678.3 151.8 L678.5 152.1 L678.7 152.5 L678.9 152.9 L679.1 153.3 L679.2 153.7 L679.4 154.1 L679.5 154.5 L679.7 154.9 L679.8 155.3 L679.9 155.7 L680.0 156.1 L680.1 156.6 L680.2 157.0 L680.3 157.4 L680.4 157.8 L680.4 158.3 L680.4 158.7 L680.5 159.1 L680.5 159.6 L680.5 160.0 L680.5 160.4 L680.5 160.9 L680.4 161.3 L680.4 161.7 L680.4 162.2 L680.3 162.6 L680.2 163.0 L680.1 163.4 L680.0 163.9 L679.9 164.3 L679.8 164.7 L679.7 165.1 L679.5 165.5 L679.4 165.9 L679.2 166.3 L679.1 166.7 L678.9 167.1 L678.7 167.5 L678.5 167.9 L678.3 168.2 L678.1 168.6 L677.8 169.0 L677.6 169.3 L677.3 169.7 L677.1 170.0 L676.8 170.4 L676.5 170.7 L676.3 171.0 L676.0 171.4 L675.7 171.7 L675.4 172.0 L675.0 172.3 L674.7 172.5 L674.4 172.8 L674.0 173.1 L673.7 173.3 L673.3 173.6 L673.0 173.8 L672.6 174.1 L672.2 174.3 L671.9 174.5 L671.5 174.7 L671.1 174.9 L670.7 175.1 L670.3 175.2 L669.9 175.4 L669.5 175.5 L669.1 175.7 L668.7 175.8 L668.3 175.9 L667.9 176.0 L667.4 176.1 L667.0 176.2 L666.6 176.3 L666.2 176.4 L665.7 176.4 L665.3 176.4 L664.9 176.5 L664.4 176.5 L664.0 176.5 Z" fill="#d85c2a" fill-rule="evenodd" stroke="#15191c" stroke-width="2.5" stroke-linejoin="round"/>
  <text x="400" y="91" text-anchor="middle" font-family="Helvetica, Arial, sans-serif" font-weight="800" font-size="13" letter-spacing="1.5" fill="#8f3a17">RACKHOUSE  ·  NOT FOR CLIMBING</text>
  <g transform="translate(202,132)" stroke-linecap="round" stroke-linejoin="round"><rect x="-11" y="-14" width="22" height="58" rx="11" fill="none" stroke="#9aa1a8" stroke-width="5"/><rect x="-9" y="36" width="18" height="58" rx="5" fill="#4a90c2" stroke="#15191c" stroke-width="2"/><rect x="-11" y="86" width="22" height="58" rx="11" fill="none" stroke="#9aa1a8" stroke-width="5"/></g>
  <g transform="translate(268,132)" stroke-linecap="round" stroke-linejoin="round"><rect x="-11" y="-14" width="22" height="58" rx="11" fill="none" stroke="#9aa1a8" stroke-width="5"/><rect x="-9" y="36" width="18" height="58" rx="5" fill="#3a8f4f" stroke="#15191c" stroke-width="2"/><rect x="-11" y="86" width="22" height="58" rx="11" fill="none" stroke="#9aa1a8" stroke-width="5"/></g>
  <g transform="translate(334,132)" stroke-linecap="round" stroke-linejoin="round"><rect x="-11" y="-14" width="22" height="58" rx="11" fill="none" stroke="#9aa1a8" stroke-width="5"/><rect x="-9" y="36" width="18" height="58" rx="5" fill="#c9a86a" stroke="#15191c" stroke-width="2"/><rect x="-11" y="86" width="22" height="58" rx="11" fill="none" stroke="#9aa1a8" stroke-width="5"/></g>
  <g transform="translate(400,132)" stroke-linecap="round" stroke-linejoin="round"><rect x="-11" y="-14" width="22" height="58" rx="11" fill="none" stroke="#9aa1a8" stroke-width="5"/><rect x="-9" y="36" width="18" height="58" rx="5" fill="#c03b2b" stroke="#15191c" stroke-width="2"/><rect x="-11" y="86" width="22" height="58" rx="11" fill="none" stroke="#9aa1a8" stroke-width="5"/></g>
  <g transform="translate(466,132)" stroke-linecap="round" stroke-linejoin="round"><rect x="-11" y="-14" width="22" height="58" rx="11" fill="none" stroke="#9aa1a8" stroke-width="5"/><rect x="-9" y="36" width="18" height="58" rx="5" fill="#4a90c2" stroke="#15191c" stroke-width="2"/><rect x="-11" y="86" width="22" height="58" rx="11" fill="none" stroke="#9aa1a8" stroke-width="5"/></g>
  <g transform="translate(532,126)"><rect x="-11" y="-4" width="22" height="58" rx="11" fill="none" stroke="#9aa1a8" stroke-width="5"/><path d="M-6 54 C -40 120 -30 230 0 250 C 30 230 40 120 6 54" fill="none" stroke="#c9a86a" stroke-width="7"/></g>
  <g transform="translate(598,132)" stroke-linecap="round" stroke-linejoin="round"><rect x="-11" y="-14" width="22" height="58" rx="11" fill="none" stroke="#9aa1a8" stroke-width="5"/><rect x="-9" y="36" width="18" height="58" rx="5" fill="#c9a86a" stroke="#15191c" stroke-width="2"/><rect x="-11" y="86" width="22" height="58" rx="11" fill="none" stroke="#9aa1a8" stroke-width="5"/></g>
  <g font-family="Helvetica, Arial, sans-serif" font-size="15" font-weight="700" fill="#15191c"><text x="60" y="480">7 slots: clip quickdraws, slings or extra gear</text><text x="60" y="502" font-weight="400" fill="#4b5157">Two screws through the keyholes, 20 mm off the wall</text></g>
</svg>
